<svg xmlns="http://www.w3.org/2000/svg" xmlns:xlink="http://www.w3.org/1999/xlink" viewBox="0 0 766.99 267.6"><defs><style>.cls-1{fill:none;}.cls-2{fill:#fff;}.cls-3{fill:#2b98d5;}.cls-4{clip-path:url(#clip-path);}.cls-5{fill:url(#Dégradé_sans_nom_11);}.cls-6{clip-path:url(#clip-path-2);}.cls-7{fill:url(#Dégradé_sans_nom_2);}.cls-8{clip-path:url(#clip-path-3);}.cls-9{fill:#84d0f4;}</style><clipPath id="clip-path" transform="translate(77.67 30.5)"><path class="cls-1" d="M23.47,53v0A273,273,0,0,0,12.2,78.18C5.27,96,0,115.65,0,134.24c0,28.27,24.62,51.26,54.9,51.26a57,57,0,0,0,34.18-11.2A52.57,52.57,0,0,0,104,157.1a52.83,52.83,0,0,0-3.92-7.83C2.09,167,36.44,30.71,36.9,28.93,33.08,35.16,28.31,43.42,23.47,53"/></clipPath><linearGradient id="Dégradé_sans_nom_11" x1="-716.65" y1="350.21" x2="-713.6" y2="350.21" gradientTransform="translate(17868.34 -8633.97) scale(24.96)" gradientUnits="userSpaceOnUse"><stop offset="0" stop-color="#295880"/><stop offset="1" stop-color="#2894d0"/></linearGradient><clipPath id="clip-path-2" transform="translate(77.67 30.5)"><path class="cls-1" d="M46.23,14.69h0S37.77,125,98.47,104.87a53.32,53.32,0,0,0,5.1-9.3A262.26,262.26,0,0,0,85.76,51.88s0-.05,0-.05A313.21,313.21,0,0,0,64.94,16.66l-10-14.27Z"/></clipPath><linearGradient id="Dégradé_sans_nom_2" x1="-778.22" y1="298.37" x2="-775.17" y2="298.37" gradientTransform="translate(-9814.4 3861.69) rotate(180) scale(12.73)" gradientUnits="userSpaceOnUse"><stop offset="0" stop-color="#00ace5"/><stop offset="1" stop-color="#5ac1ed"/></linearGradient><clipPath id="clip-path-3" transform="translate(77.67 30.5)"><rect class="cls-1" width="689.32" height="185.51"/></clipPath></defs><g id="Calque_2" data-name="Calque 2"><g id="Calque_1-2" data-name="Calque 1"><polygon class="cls-2" points="239.49 32.89 260.18 32.89 260.18 107.75 298.56 107.75 298.56 126.87 239.49 126.87 239.49 32.89"/><path class="cls-2" d="M270.25,88.27H270a18.65,18.65,0,0,1-8.83,7.43A30.22,30.22,0,0,1,249.55,98a29.57,29.57,0,0,1-8.69-1.28,21.64,21.64,0,0,1-7.37-3.78,18.16,18.16,0,0,1-5.05-6.23,19,19,0,0,1-1.85-8.63,19.78,19.78,0,0,1,2-9.42,18.48,18.48,0,0,1,5.57-6.37,27.6,27.6,0,0,1,8-3.92,58.93,58.93,0,0,1,9.36-2.06,90,90,0,0,1,9.69-.79c3.23-.09,6.2-.14,8.95-.14a10.39,10.39,0,0,0-3.78-8.44,13.69,13.69,0,0,0-9-3.11,19.61,19.61,0,0,0-8.95,2.06,24.72,24.72,0,0,0-7.24,5.64L230.7,40.62a36.63,36.63,0,0,1,13-7.77,46.4,46.4,0,0,1,15.39-2.59q8.77,0,14.41,2.2a20.8,20.8,0,0,1,9,6.44,24.69,24.69,0,0,1,4.72,10.41,68.2,68.2,0,0,1,1.32,14.28V96.37H270.25Zm-4.9-20.18c-1.52,0-3.4.07-5.64.2a28.44,28.44,0,0,0-6.51,1.14,14.3,14.3,0,0,0-5.31,2.78,6.43,6.43,0,0,0-2.18,5.18,5.67,5.67,0,0,0,3,5.3,12.67,12.67,0,0,0,6.38,1.73,19.72,19.72,0,0,0,5.64-.8,16.62,16.62,0,0,0,4.83-2.24,11,11,0,0,0,3.4-3.72,10.75,10.75,0,0,0,1.25-5.31V68.09Z" transform="translate(77.67 30.5)"/><path class="cls-2" d="M384.41,26.81a20.57,20.57,0,0,0-7.49-5.71,25.15,25.15,0,0,0-10.29-2,25.77,25.77,0,0,0-10.82,2.27,25.45,25.45,0,0,0-8.62,6.29,29.21,29.21,0,0,0-5.72,9.63,34.7,34.7,0,0,0-2.06,12.08,34.44,34.44,0,0,0,2.06,12.14,30.08,30.08,0,0,0,5.64,9.56,25.35,25.35,0,0,0,8.44,6.31A24.32,24.32,0,0,0,366,79.65,23.27,23.27,0,0,0,377.24,77a22.44,22.44,0,0,0,8.1-7.43L402.6,82.44a36,36,0,0,1-15.14,12.33,46.68,46.68,0,0,1-18.84,4,58.11,58.11,0,0,1-20.31-3.45,46.33,46.33,0,0,1-16.06-9.89,44.82,44.82,0,0,1-10.56-15.6,52.94,52.94,0,0,1-3.78-20.44,52.91,52.91,0,0,1,3.78-20.44,44.92,44.92,0,0,1,10.56-15.6,46.33,46.33,0,0,1,16.06-9.89A58.11,58.11,0,0,1,368.62,0a51.65,51.65,0,0,1,8.3.72,45.09,45.09,0,0,1,8.48,2.34,37.82,37.82,0,0,1,8,4.24,31.85,31.85,0,0,1,6.89,6.51Z" transform="translate(77.67 30.5)"/><path class="cls-2" d="M472.42,85.22a31.76,31.76,0,0,1-12.08,9.42A36,36,0,0,1,445.21,98a40.5,40.5,0,0,1-14-2.4,33.65,33.65,0,0,1-11.42-6.83,32.09,32.09,0,0,1-7.64-10.69,33.72,33.72,0,0,1-2.78-13.94,33.74,33.74,0,0,1,2.78-13.93,32.19,32.19,0,0,1,7.64-10.69,33.49,33.49,0,0,1,11.42-6.83,40.5,40.5,0,0,1,14-2.4,31.8,31.8,0,0,1,12.55,2.4,26.07,26.07,0,0,1,9.55,6.83,31.46,31.46,0,0,1,6.05,10.69,43.47,43.47,0,0,1,2.12,13.93v6.25h-46.2a15.86,15.86,0,0,0,5.18,9.09,14.64,14.64,0,0,0,9.82,3.37,14.9,14.9,0,0,0,8.29-2.18A22.1,22.1,0,0,0,458.48,75ZM455.56,56.81a11.57,11.57,0,0,0-3.31-8.62,11.78,11.78,0,0,0-8.9-3.58,14.83,14.83,0,0,0-5.83,1,14.55,14.55,0,0,0-4.32,2.73,12,12,0,0,0-2.79,3.84,12.59,12.59,0,0,0-1.13,4.58Z" transform="translate(77.67 30.5)"/><path class="cls-2" d="M487.55,31.86h19.11v8.76h.27a16.43,16.43,0,0,1,2.66-3.72,19.35,19.35,0,0,1,4.1-3.31,24,24,0,0,1,5.45-2.4,23,23,0,0,1,6.63-.93c5.06,0,9.12.78,12.22,2.33A17.63,17.63,0,0,1,545.22,39a25.88,25.88,0,0,1,3.52,9.68,72.7,72.7,0,0,1,.92,12.09V96.37H529.77V64.78c0-1.85-.08-3.79-.21-5.77a18.42,18.42,0,0,0-1.19-5.51,8.57,8.57,0,0,0-9-5.72,12.4,12.4,0,0,0-6.24,1.4,9.52,9.52,0,0,0-3.65,3.72,15.35,15.35,0,0,0-1.66,5.24,46.19,46.19,0,0,0-.4,6.1V96.37H487.55Z" transform="translate(77.67 30.5)"/><path class="cls-2" d="M600.25,50.84A14.12,14.12,0,0,0,588.7,45.4a10.84,10.84,0,0,0-4.92,1.19,4.24,4.24,0,0,0-2.39,4.12,3.69,3.69,0,0,0,2.46,3.51,32.12,32.12,0,0,0,6.24,2c2.53.57,5.22,1.2,8.1,1.86a29.39,29.39,0,0,1,8.09,3.12A18,18,0,0,1,612.51,67c1.65,2.44,2.47,5.68,2.47,9.76A18,18,0,0,1,612.25,87a20.76,20.76,0,0,1-7,6.51A30.15,30.15,0,0,1,595.73,97a59,59,0,0,1-10.48,1,51.18,51.18,0,0,1-13.67-1.92,25.67,25.67,0,0,1-11.69-6.85L572,75.8A20.19,20.19,0,0,0,578.14,81a16.47,16.47,0,0,0,7.9,1.79,18.26,18.26,0,0,0,6.23-1,3.67,3.67,0,0,0,2.79-3.65,4,4,0,0,0-2.44-3.78,26.71,26.71,0,0,0-6.25-2.12l-8.09-1.86a33.78,33.78,0,0,1-8.11-3,17,17,0,0,1-6.23-5.64c-1.63-2.43-2.45-5.69-2.45-9.75a19.66,19.66,0,0,1,2.32-9.83,20.12,20.12,0,0,1,6.1-6.76,26.46,26.46,0,0,1,8.7-3.92,39.81,39.81,0,0,1,9.95-1.27,47,47,0,0,1,12.87,1.86,23.89,23.89,0,0,1,11,6.64Z" transform="translate(77.67 30.5)"/><path class="cls-2" d="M686.25,85.22a31.57,31.57,0,0,1-12.07,9.42A36,36,0,0,1,659.05,98a40.36,40.36,0,0,1-14-2.4,33.69,33.69,0,0,1-11.43-6.83A32.06,32.06,0,0,1,626,78.05a33.73,33.73,0,0,1-2.79-13.94A33.75,33.75,0,0,1,626,50.18a32.17,32.17,0,0,1,7.63-10.69,33.53,33.53,0,0,1,11.43-6.83,40.36,40.36,0,0,1,14-2.4,31.76,31.76,0,0,1,12.55,2.4,26.07,26.07,0,0,1,9.55,6.83,31.11,31.11,0,0,1,6,10.69,42.92,42.92,0,0,1,2.13,13.93v6.25h-46.2a15.85,15.85,0,0,0,5.17,9.09,14.7,14.7,0,0,0,9.83,3.37,15,15,0,0,0,8.3-2.18,22.37,22.37,0,0,0,5.9-5.64ZM669.4,56.81a11.46,11.46,0,0,0-3.32-8.62,11.74,11.74,0,0,0-8.88-3.58A14.36,14.36,0,0,0,647,48.39a11.85,11.85,0,0,0-2.79,3.84,12.59,12.59,0,0,0-1.13,4.58Z" transform="translate(77.67 30.5)"/><polygon class="cls-2" points="263.48 215.04 257.89 215.04 257.89 165.32 239.54 165.32 239.54 160.22 281.82 160.22 281.82 165.32 263.48 165.32 263.48 215.04"/><path class="cls-2" d="M221,134.36a3.4,3.4,0,0,1-1.17,2.67,3.63,3.63,0,0,1-5.11,0,3.67,3.67,0,0,1,0-5.34,3.66,3.66,0,0,1,5.11,0,3.43,3.43,0,0,1,1.17,2.67m-1.17,50.18h-5.11V148.31h5.11Z" transform="translate(77.67 30.5)"/><path class="cls-2" d="M254.1,153H243.64v21.37a11.4,11.4,0,0,0,.39,3.28,4.66,4.66,0,0,0,1.08,2,3.8,3.8,0,0,0,1.67,1,7.55,7.55,0,0,0,2.12.28,10,10,0,0,0,2.71-.39,12.67,12.67,0,0,0,2.55-1l.24,4.72a16.23,16.23,0,0,1-6.89,1.32,12.77,12.77,0,0,1-3.06-.39,7.19,7.19,0,0,1-2.9-1.47,7.9,7.9,0,0,1-2.16-2.94,11.46,11.46,0,0,1-.87-4.88V153h-7.66v-4.64h7.66V138.08h5.12v10.23H254.1Z" transform="translate(77.67 30.5)"/><path class="cls-2" d="M264.86,159.61c0-1.6,0-3.22-.13-4.88s-.13-3.8-.19-6.42h5V155h.16a11,11,0,0,1,1.55-2.82,11.76,11.76,0,0,1,2.44-2.44A11.52,11.52,0,0,1,277,148a13.44,13.44,0,0,1,4.3-.65,14.43,14.43,0,0,1,3.81.45l-1,5a8.52,8.52,0,0,0-2.94-.39,10.59,10.59,0,0,0-5,1.12,11.5,11.5,0,0,0-5.53,6.62,12,12,0,0,0-.67,3.88v20.44h-5.1Z" transform="translate(77.67 30.5)"/><path class="cls-2" d="M295.43,167.82a15.6,15.6,0,0,0,1.32,5.11,13.23,13.23,0,0,0,2.87,4.13,13.52,13.52,0,0,0,4.1,2.76,12.48,12.48,0,0,0,5,1,12.83,12.83,0,0,0,7.09-1.9,14,14,0,0,0,4.52-4.36l4,3.24a19.56,19.56,0,0,1-7.17,5.89,20.13,20.13,0,0,1-8.4,1.78,19.34,19.34,0,0,1-7.47-1.43,17.71,17.71,0,0,1-5.93-4,19.09,19.09,0,0,1-3.9-6,19.49,19.49,0,0,1-1.44-7.6,20.28,20.28,0,0,1,1.4-7.58,18.51,18.51,0,0,1,3.87-6,17.79,17.79,0,0,1,13-5.41,17.48,17.48,0,0,1,7.35,1.47,16.09,16.09,0,0,1,5.46,3.91,16.73,16.73,0,0,1,3.37,5.73,20.72,20.72,0,0,1,1.16,7v2.34Zm24.63-4.19a11.63,11.63,0,0,0-3.1-8.4c-2.06-2.15-5-3.21-8.67-3.21a12.57,12.57,0,0,0-4.8,1,13.39,13.39,0,0,0-4.06,2.6,12.84,12.84,0,0,0-2.79,3.71,9.62,9.62,0,0,0-1.06,4.34Z" transform="translate(77.67 30.5)"/><path class="cls-2" d="M357.39,156.9a9.23,9.23,0,0,0-3.11-3.56,8.11,8.11,0,0,0-4.71-1.32,11.86,11.86,0,0,0-2.68.31,8.36,8.36,0,0,0-2.44,1,5.29,5.29,0,0,0-1.73,1.66,4.33,4.33,0,0,0-.67,2.48,4.13,4.13,0,0,0,1.79,3.72,17.57,17.57,0,0,0,5.34,2l5.19,1.23a12.41,12.41,0,0,1,6.31,3.46,8.93,8.93,0,0,1,2.51,6.46,9.84,9.84,0,0,1-4.37,8.56,13.81,13.81,0,0,1-4.54,2,22,22,0,0,1-5.18.62,19,19,0,0,1-7.78-1.59,14.47,14.47,0,0,1-6.16-5.45l4.41-3a12.3,12.3,0,0,0,3.91,3.95,10.46,10.46,0,0,0,5.62,1.47,14.86,14.86,0,0,0,3.1-.34A9.63,9.63,0,0,0,355,179.4a6,6,0,0,0,1.93-1.9,5,5,0,0,0,.74-2.72,4.22,4.22,0,0,0-2-3.91,18.06,18.06,0,0,0-4.87-1.9l-5-1.15c-.63-.15-1.46-.41-2.51-.78a12.68,12.68,0,0,1-3.11-1.62,10.1,10.1,0,0,1-2.59-2.83,8.12,8.12,0,0,1-1.08-4.3,10.16,10.16,0,0,1,1.12-4.88,9.55,9.55,0,0,1,3-3.4,13.72,13.72,0,0,1,4.29-2,19.07,19.07,0,0,1,5-.65,16.73,16.73,0,0,1,7,1.47,10.33,10.33,0,0,1,5,5Z" transform="translate(77.67 30.5)"/><rect class="cls-2" x="449.46" y="193.9" width="19.89" height="5.11"/><path class="cls-2" d="M422.66,156.9a9.29,9.29,0,0,0-3.1-3.56,8.15,8.15,0,0,0-4.72-1.32,11.8,11.8,0,0,0-2.68.31,8.59,8.59,0,0,0-2.44,1A5.39,5.39,0,0,0,408,155a4.41,4.41,0,0,0-.67,2.48,4.13,4.13,0,0,0,1.8,3.72,17.49,17.49,0,0,0,5.33,2l5.19,1.23a12.37,12.37,0,0,1,6.31,3.46,8.9,8.9,0,0,1,2.52,6.46,10.21,10.21,0,0,1-1.21,5.08,10.38,10.38,0,0,1-3.17,3.48,13.85,13.85,0,0,1-4.53,2,22,22,0,0,1-5.18.62,19,19,0,0,1-7.79-1.59,14.47,14.47,0,0,1-6.16-5.45l4.42-3a12.2,12.2,0,0,0,3.91,3.95,10.44,10.44,0,0,0,5.62,1.47,15,15,0,0,0,3.1-.34,9.56,9.56,0,0,0,2.74-1.08,5.94,5.94,0,0,0,1.93-1.9,5,5,0,0,0,.75-2.72,4.22,4.22,0,0,0-2-3.91A18.33,18.33,0,0,0,416,169l-5-1.15c-.62-.15-1.45-.41-2.51-.78a12.62,12.62,0,0,1-3.1-1.62,10.1,10.1,0,0,1-2.59-2.83,8,8,0,0,1-1.09-4.3,10.28,10.28,0,0,1,1.12-4.88,9.55,9.55,0,0,1,3-3.4,13.93,13.93,0,0,1,4.29-2,19.1,19.1,0,0,1,4.95-.65,16.82,16.82,0,0,1,7.06,1.47,10.31,10.31,0,0,1,5,5Z" transform="translate(77.67 30.5)"/><path class="cls-2" d="M443.25,167.82a15.36,15.36,0,0,0,1.32,5.11,13.4,13.4,0,0,0,2.87,4.13,13.56,13.56,0,0,0,4.11,2.76,12.43,12.43,0,0,0,5,1,12.83,12.83,0,0,0,7.09-1.9,14.06,14.06,0,0,0,4.53-4.36l3.95,3.24a19.48,19.48,0,0,1-7.17,5.89,20.13,20.13,0,0,1-8.4,1.78,19.25,19.25,0,0,1-7.46-1.43,17.51,17.51,0,0,1-5.93-4,18.94,18.94,0,0,1-3.91-6,19.67,19.67,0,0,1-1.44-7.6,20.48,20.48,0,0,1,1.4-7.58,18.51,18.51,0,0,1,3.87-6,17.79,17.79,0,0,1,13-5.41,17.56,17.56,0,0,1,7.36,1.47,16.05,16.05,0,0,1,5.45,3.91,16.73,16.73,0,0,1,3.37,5.73,20.72,20.72,0,0,1,1.16,7v2.34Zm24.63-4.19a11.63,11.63,0,0,0-3.1-8.4c-2.06-2.15-5-3.21-8.67-3.21a12.61,12.61,0,0,0-4.8,1,13.51,13.51,0,0,0-4.06,2.6,12.84,12.84,0,0,0-2.79,3.71,9.62,9.62,0,0,0-1.06,4.34Z" transform="translate(77.67 30.5)"/><path class="cls-2" d="M486.55,159.61c0-1.6,0-3.22-.13-4.88s-.13-3.8-.2-6.42h5V155h.16a11,11,0,0,1,1.54-2.82,11.81,11.81,0,0,1,2.45-2.44,11.52,11.52,0,0,1,3.32-1.75,13.39,13.39,0,0,1,4.3-.65,14.35,14.35,0,0,1,3.8.45l-1,5a8.52,8.52,0,0,0-2.94-.39,10.59,10.59,0,0,0-5,1.12,11.43,11.43,0,0,0-3.49,2.87,11.66,11.66,0,0,0-2,3.75,12,12,0,0,0-.67,3.88v20.44h-5.1Z" transform="translate(77.67 30.5)"/><polygon class="cls-2" points="608.58 215.04 602.85 215.04 588.14 178.81 594.17 178.81 605.79 209.31 605.94 209.31 617.48 178.81 623.29 178.81 608.58 215.04"/><path class="cls-2" d="M563,134.36A3.39,3.39,0,0,1,561.8,137a3.63,3.63,0,0,1-5.11,0,3.65,3.65,0,0,1,0-5.34,3.66,3.66,0,0,1,5.11,0,3.42,3.42,0,0,1,1.16,2.67m-1.16,50.18h-5.11V148.31h5.11Z" transform="translate(77.67 30.5)"/><path class="cls-2" d="M603.78,156.82a11.17,11.17,0,0,0-3.69-3.41A10.4,10.4,0,0,0,594.7,152a13.27,13.27,0,0,0-5.68,1,12.71,12.71,0,0,0-4.3,3,13.15,13.15,0,0,0-2.71,4.6,17.85,17.85,0,0,0-.93,5.77,17.58,17.58,0,0,0,.93,5.77,12.76,12.76,0,0,0,2.71,4.61,12.47,12.47,0,0,0,4.3,3,13.27,13.27,0,0,0,5.68,1,10.4,10.4,0,0,0,5.39-1.39,11.14,11.14,0,0,0,3.69-3.4L608,179.2a17.13,17.13,0,0,1-6.12,4.68,18.43,18.43,0,0,1-7.13,1.59,20.39,20.39,0,0,1-8-1.36,17.67,17.67,0,0,1-6.07-4,17,17,0,0,1-3.83-6.1,22.68,22.68,0,0,1,0-15.25,16.7,16.7,0,0,1,3.83-6.07,17.58,17.58,0,0,1,6.07-4,19.85,19.85,0,0,1,8-1.35,18.06,18.06,0,0,1,7.13,1.58,17.36,17.36,0,0,1,6.12,4.68Z" transform="translate(77.67 30.5)"/><path class="cls-2" d="M621.51,167.82a15.83,15.83,0,0,0,1.3,5.11,13.6,13.6,0,0,0,2.88,4.13,13.4,13.4,0,0,0,4.1,2.76,12.48,12.48,0,0,0,5,1,12.8,12.8,0,0,0,7.09-1.9,14.06,14.06,0,0,0,4.53-4.36l3.94,3.24a19.58,19.58,0,0,1-7.15,5.89,20.24,20.24,0,0,1-8.41,1.78,19.3,19.3,0,0,1-7.47-1.43,17.57,17.57,0,0,1-5.92-4,18.61,18.61,0,0,1-3.91-6,19.67,19.67,0,0,1-1.44-7.6,20.47,20.47,0,0,1,1.39-7.58,18.68,18.68,0,0,1,3.87-6,17.79,17.79,0,0,1,13-5.41,17.57,17.57,0,0,1,7.37,1.47,16.15,16.15,0,0,1,5.45,3.91,16.73,16.73,0,0,1,3.37,5.73,21,21,0,0,1,1.16,7v2.34Zm24.61-4.19a11.66,11.66,0,0,0-3.09-8.4c-2.07-2.15-5-3.21-8.68-3.21a12.73,12.73,0,0,0-4.8,1,13.77,13.77,0,0,0-4.06,2.6,13,13,0,0,0-2.79,3.71,9.72,9.72,0,0,0-1,4.34Z" transform="translate(77.67 30.5)"/><path class="cls-2" d="M683.46,156.9a9.46,9.46,0,0,0-3.1-3.56,8.17,8.17,0,0,0-4.72-1.32,11.88,11.88,0,0,0-2.69.31,8.41,8.41,0,0,0-2.43,1,5.32,5.32,0,0,0-1.74,1.66,4.41,4.41,0,0,0-.66,2.48,4.13,4.13,0,0,0,1.79,3.72,17.6,17.6,0,0,0,5.33,2l5.19,1.23a12.33,12.33,0,0,1,6.31,3.46,8.87,8.87,0,0,1,2.53,6.46,10.21,10.21,0,0,1-1.21,5.08,10.41,10.41,0,0,1-3.18,3.48,13.8,13.8,0,0,1-4.52,2,22.13,22.13,0,0,1-5.19.62,19,19,0,0,1-7.79-1.59,14.47,14.47,0,0,1-6.16-5.45l4.42-3a12.3,12.3,0,0,0,3.91,3.95,10.44,10.44,0,0,0,5.62,1.47,14.86,14.86,0,0,0,3.1-.34A9.34,9.34,0,0,0,681,179.4a6,6,0,0,0,1.94-1.9,5,5,0,0,0,.74-2.72,4.22,4.22,0,0,0-2-3.91,18.33,18.33,0,0,0-4.87-1.9l-5-1.15c-.61-.15-1.45-.41-2.5-.78a12.45,12.45,0,0,1-3.1-1.62,10.13,10.13,0,0,1-2.6-2.83,8,8,0,0,1-1.09-4.3,10.16,10.16,0,0,1,1.13-4.88,9.53,9.53,0,0,1,3-3.4,13.88,13.88,0,0,1,4.3-2,19,19,0,0,1,5-.65,16.8,16.8,0,0,1,7,1.47,10.37,10.37,0,0,1,5,5Z" transform="translate(77.67 30.5)"/><path class="cls-3" d="M104,157.1a52.62,52.62,0,0,1-15.49,17.63,57.15,57.15,0,0,1-33.63,10.76c-30.27,0-54.89-23-54.89-51.25C0,115.65,5.27,96,12.18,78.18A317.92,317.92,0,0,1,36.89,28.93h0c4.38-7.15,7.48-11.6,8-12.26l1.38-2,8.66-12.3,10,14.27A313.61,313.61,0,0,1,85.73,51.82s0,0,0,.06a261.56,261.56,0,0,1,17.81,43.69,51.44,51.44,0,0,1-36.42,30.36A54.25,54.25,0,0,1,92.5,139.77,49.86,49.86,0,0,1,104,157.1" transform="translate(77.67 30.5)"/><g class="cls-4"><rect class="cls-5" x="-41.1" y="16.43" width="186.21" height="181.57" transform="translate(14.87 105.77) rotate(-48.58)"/></g><g class="cls-6"><rect class="cls-7" x="4.31" y="-3.17" width="132.71" height="133.77" transform="translate(53.26 97.88) rotate(-44.25)"/></g><g class="cls-8"><path class="cls-9" d="M96.74,116.3a36,36,0,0,0,9.63-17.61s2.43,10.37,9.63,17.59,17.62,9.64,17.62,9.64A36.4,36.4,0,0,0,116,135.54a40.62,40.62,0,0,0-9.63,17.62,34.18,34.18,0,0,0-9.63-17.62,37.83,37.83,0,0,0-17.62-9.62,36.51,36.51,0,0,0,17.62-9.62" transform="translate(77.67 30.5)"/></g></g></g></svg>